<svg xmlns="http://www.w3.org/2000/svg" viewBox="0 0 24 24"><title>Memory Cache - Humanspeak</title><rect width="24" height="24" fill="#3dbba0" rx="4" ry="4"/><!--!Font Awesome Free 7.1.0 by @fontawesome - https://fontawesome.com License - https://fontawesome.com/license/free Copyright 2025 Fonticons, Inc.--><path fill="#fff" d="M6.096 5.596a2.05 2.05 0 0 0-2.048 2.048v.237c0 .217.14.403.323.521a1.535 1.535 0 0 1 0 2.58c-.182.118-.323.304-.323.521v1.773h16.384v-1.773c0-.217-.14-.403-.323-.521a1.535 1.535 0 0 1 0-2.58c.182-.118.323-.304.323-.521v-.237a2.05 2.05 0 0 0-2.048-2.048zM20.432 16.86v-2.048H4.048v2.048c0 .566.458 1.024 1.024 1.024H7.12v-.768c0-.426.342-.768.768-.768s.768.342.768.768v.768h2.816v-.768c0-.426.342-.768.768-.768s.768.342.768.768v.768h2.816v-.768c0-.426.342-.768.768-.768s.768.342.768.768v.768h2.048c.566 0 1.024-.458 1.024-1.024M9.168 8.668v2.048a1.023 1.023 0 1 1-2.048 0V8.668a1.023 1.023 0 1 1 2.048 0m4.096 0v2.048a1.023 1.023 0 1 1-2.048 0V8.668a1.023 1.023 0 1 1 2.048 0m4.096 0v2.048a1.023 1.023 0 1 1-2.048 0V8.668a1.023 1.023 0 1 1 2.048 0"/></svg>